<svg width="1440" height="919" viewBox="0 0 1440 919" fill="none" xmlns="http://www.w3.org/2000/svg">
<path d="M200.713 748.341C88.4781 761.596 -34.1718 810.437 -97.5014 845.126L-108.001 851.193C-95.3239 
577.894 -131.274 -21.6147 -97.5015 1C-55.2852 29.2683 76.2626 132.126 284 173C448.528 205.372 612 103.97 
782.485 103.97C954.881 103.97 1176 217 1292 217C1393.08 217 1497.17 140.681 1564 103.97L1564 845.126C1537.34 
871.727 1481 933.5 1373.5 915C1266 896.5 1237.98 775.548 1112 748.341C986.017 721.133 757.224 801.221 
635.735 807.756C508.872 814.579 320.974 734.138 200.713 748.341Z" 
fill="#EF995E"/>
</svg>
