<svg width="26" height="19" viewBox="0 0 26 19" fill="none" xmlns="http://www.w3.org/2000/svg">
<path fill-rule="evenodd" clip-rule="evenodd" d="M25.252 0.568939C25.6152 0.932926 25.8193 1.42653 25.8193 1.94121C25.8193 2.45589 25.6152 2.94949 25.252 3.31348L10.7298 17.8618C10.5379 18.0541 10.31 18.2066 10.0593 18.3107C9.80849 18.4148 9.53971 18.4683 9.26827 18.4683C8.99683 18.4683 8.72805 18.4148 8.47728 18.3107C8.22651 18.2066 7.99866 18.0541 7.80675 17.8618L0.591496 10.6349C0.406445 10.4558 0.258842 10.2416 0.1573 10.0048C0.0557571 9.76801 0.00230867 9.51332 7.31534e-05 9.2556C-0.00216237 8.99787 0.0468599 8.74229 0.144279 8.50375C0.241698 8.26521 0.385564 8.04849 0.567481 7.86625C0.749398 7.68401 0.965723 7.53988 1.20383 7.44229C1.44195 7.3447 1.69708 7.29558 1.95434 7.29782C2.2116 7.30006 2.46583 7.35361 2.70222 7.45533C2.9386 7.55706 3.15239 7.70493 3.33112 7.89031L9.26762 13.8375L22.5111 0.568939C22.691 0.388571 22.9047 0.245488 23.1398 0.147867C23.375 0.050246 23.627 0 23.8815 0C24.1361 0 24.3881 0.050246 24.6233 0.147867C24.8584 0.245488 25.0721 0.388571 25.252 0.568939Z" fill="#D67D31"/>
</svg>
