<svg width="82" height="85" viewBox="0 0 82 85" fill="none" xmlns="http://www.w3.org/2000/svg">
<g clip-path="url(#clip0_59166_977)">
<path d="M42.6738 41.4107C35.5622 41.8711 34.1601 48.6109 27.9489 54.9328C18.8421 64.2081 20.9269 71.8708 26.7681 73.2499C32.6077 74.6338 37.2966 67.9132 43.5763 67.7952C43.5971 67.7968 43.6147 67.7919 43.6354 67.7935C43.6562 67.7951 43.6737 67.7902 43.6945 67.7918C49.9645 67.4306 55.1246 73.7782 60.854 71.9523C66.5771 70.1295 68.1017 62.3318 58.3441 53.7753C51.6942 47.9411 49.8032 41.3294 42.6786 41.4123L42.6738 41.4107Z" fill="#DEDCDC"/>
<path d="M25.2986 36.7786C29.4312 42.0544 30.0317 48.499 26.6328 51.1733C23.2339 53.8476 17.1288 51.7409 12.9946 46.4698C8.86034 41.1988 8.26148 34.7494 11.6604 32.0751C15.0593 29.4008 21.1659 31.5027 25.2986 36.7786Z" fill="#DEDCDC"/>
<path d="M59.6658 35.4676C55.9266 41.0422 55.7988 47.517 59.3822 49.9279C62.9657 52.3388 68.9024 49.7764 72.6416 44.2018C76.3809 38.6272 76.5087 32.1524 72.9252 29.7415C69.3418 27.3306 63.4051 29.893 59.6658 35.4676Z" fill="#DEDCDC"/>
<path d="M40.1417 22.5488C41.6335 29.4653 39.2346 35.8582 34.784 36.8287C30.3334 37.7992 25.5127 32.9776 24.0208 26.0611C22.5289 19.1446 24.9278 12.7517 29.3784 11.7812C33.829 10.8107 38.6498 15.6324 40.1417 22.5488Z" fill="#DEDCDC"/>
<path d="M43.8275 22.4072C42.8455 29.4198 45.701 35.6103 50.2114 36.2383C54.7219 36.8663 59.1737 31.6936 60.1604 24.6826C61.1472 17.6716 58.287 11.4795 53.7765 10.8515C49.266 10.2235 44.8143 15.3962 43.8275 22.4072Z" fill="#DEDCDC"/>
</g>
<defs>
<clipPath id="clip0_59166_977">
<rect width="63.2512" height="67.8512" fill="white" transform="translate(21.3774) rotate(18.3646)"/>
</clipPath>
</defs>
</svg>
