<svg width="142" height="136" viewBox="0 0 142 136" fill="none" xmlns="http://www.w3.org/2000/svg">
<g clip-path="url(#clip0_58975_1424)">
<path d="M73.5064 69.8546C66.191 59.8716 55.0131 64.1125 39.956 60.9218C17.8705 56.2491 8.59749 66.4574 12.033 76.2982C15.46 86.141 29.6793 86.7306 35.7163 95.8153C35.7334 95.8472 35.7569 95.8684 35.774 95.9002C35.7911 95.9321 35.8146 95.9533 35.8317 95.9852C42.2158 104.829 37.7403 118.312 45.7643 124.996C53.7777 131.674 66.6191 126.624 70.0356 104.346C72.3681 89.1608 80.2831 80.2177 73.5086 69.8631L73.5064 69.8546Z" fill="#EF7E25" fill-opacity="0.1"/>
<path d="M64.0628 40.0874C60.197 51.0654 51.3215 57.9629 44.2317 55.4836C37.1418 53.0043 34.5253 42.0977 38.3825 31.1218C42.2397 20.146 51.1238 13.2463 58.2136 15.7257C65.3034 18.205 67.9285 29.1094 64.0628 40.0874Z" fill="#EF7E25" fill-opacity="0.1"/>
<path d="M98.0762 89.1842C86.4218 88.915 76.8219 94.7744 76.6382 102.273C76.4545 109.771 85.7506 116.071 97.4049 116.34C109.059 116.609 118.659 110.75 118.843 103.252C119.027 95.7532 109.731 89.4535 98.0762 89.1842Z" fill="#EF7E25" fill-opacity="0.1"/>
<path d="M98.7592 48.532C90.0251 57.1755 78.4243 59.633 72.8471 54.0226C67.2699 48.4122 69.8279 36.8508 78.562 28.2074C87.2961 19.564 98.8969 17.1065 104.474 22.7169C110.051 28.3272 107.493 39.8886 98.7592 48.532Z" fill="#EF7E25" fill-opacity="0.1"/>
<path d="M102.409 53.7969C91.2239 58.9078 84.8261 68.8698 88.1187 76.0606C91.4112 83.2514 103.143 84.9392 114.33 79.8368C125.517 74.7344 131.912 64.7639 128.62 57.5731C125.327 50.3822 113.596 48.6945 102.409 53.7969Z" fill="#EF7E25" fill-opacity="0.1"/>
</g>
<defs>
<clipPath id="clip0_58975_1424">
<rect width="109.847" height="117.835" fill="white" transform="translate(114.253) rotate(75.8357)"/>
</clipPath>
</defs>
</svg>
