<svg width="230" height="233" viewBox="0 0 230 233" fill="none" xmlns="http://www.w3.org/2000/svg">
<g clip-path="url(#clip0_58975_1418)">
<path d="M113.103 121.207C122.884 106.12 111.34 93.059 107.888 70.9022C102.814 38.4067 84.1462 31.0007 72.5512 40.7267C60.9489 50.4423 67.5024 70.124 58.2804 83.0082C58.246 83.0478 58.2293 83.0907 58.1949 83.1303C58.1604 83.17 58.1437 83.2129 58.1093 83.2525C49.3947 96.486 28.7583 97.297 23.8261 111.659C18.8971 126.003 32.4007 140.916 64.4396 134.154C86.2803 129.55 102.526 135.754 113.093 121.214L113.103 121.207Z" fill="#EF7E25" fill-opacity="0.1"/>
<path d="M148.667 93.0791C131.75 93.4371 117.787 84.8758 117.489 73.9423C117.191 63.0088 130.658 53.8526 147.567 53.4841C164.477 53.1156 178.447 61.6874 178.745 72.6209C179.043 83.5544 165.584 92.7211 148.667 93.0791Z" fill="#EF7E25" fill-opacity="0.1"/>
<path d="M99.5456 164.6C93.8835 148.578 80.9561 138.498 70.672 142.091C60.3879 145.683 56.6359 161.582 62.298 177.604C67.9602 193.625 80.8876 203.706 91.1717 200.113C101.456 196.52 105.208 180.622 99.5456 164.6Z" fill="#EF7E25" fill-opacity="0.1"/>
<path d="M155.138 144.695C138.876 137.222 129.536 122.67 134.275 112.194C139.014 101.717 156.047 99.2775 172.31 106.751C188.572 114.225 197.912 128.776 193.173 139.253C188.434 149.73 171.401 152.169 155.138 144.695Z" fill="#EF7E25" fill-opacity="0.1"/>
<path d="M149.872 152.368C137.142 139.743 120.296 136.13 112.228 144.303C104.16 152.476 107.934 169.329 120.654 181.961C133.374 194.593 150.23 198.199 158.298 190.026C166.366 181.853 162.592 165 149.872 152.368Z" fill="#EF7E25" fill-opacity="0.1"/>
</g>
<defs>
<clipPath id="clip0_58975_1418">
<rect width="159.487" height="171.819" fill="white" transform="translate(229.099 140.937) rotate(145.111)"/>
</clipPath>
</defs>
</svg>
