<svg width="12" height="12" viewBox="0 0 12 12" fill="none" xmlns="http://www.w3.org/2000/svg">
<path d="M8.2996 12H3.70183C1.66106 12 0 10.2612 0 8.12317V3.87832C0 1.73876 1.66106 0 3.70183 0H8.2996C10.3404 0 12 1.73876 12 3.87683V8.12168C12 10.2597 10.3389 11.9985 8.2996 11.9985V12ZM3.70183 0.861187C2.1133 0.861187 0.821996 2.21406 0.821996 3.87683V8.12168C0.821996 9.78445 2.1133 11.1373 3.7004 11.1373H8.29818C9.88528 11.1373 11.1766 9.78445 11.1766 8.12168V3.87683C11.1766 2.21406 9.88528 0.861187 8.29818 0.861187H3.70183Z" fill="white"/>
<path d="M5.99993 9.45225C4.18386 9.45225 2.70483 7.9042 2.70483 6.00005C2.70483 4.0959 4.18244 2.54785 5.99993 2.54785C7.81742 2.54785 9.29502 4.0959 9.29502 6.00005C9.29502 7.9042 7.81742 9.45225 5.99993 9.45225ZM5.99993 3.41053C4.63752 3.41053 3.52825 4.57268 3.52825 6.00005C3.52825 7.42741 4.63752 8.58957 5.99993 8.58957C7.36234 8.58957 8.4716 7.42741 8.4716 6.00005C8.4716 4.57268 7.36234 3.41053 5.99993 3.41053Z" fill="white"/>
<path d="M9.92791 2.65514C9.92791 3.04997 9.62215 3.3718 9.24386 3.3718C8.86557 3.3718 8.55981 3.05146 8.55981 2.65514C8.55981 2.25881 8.86557 1.93848 9.24386 1.93848C9.62215 1.93848 9.92791 2.25881 9.92791 2.65514Z" fill="white"/>
</svg>
