<svg width="172" height="26" viewBox="0 0 172 26" fill="none" xmlns="http://www.w3.org/2000/svg">
<path d="M4.3164 25.3119C3.45666 25.2402 2.75976 24.5498 2.8314 23.6836C3.00074 19.3524 2.94864 14.5261 2.68811 10.247C2.61647 9.40677 3.28732 8.69032 4.12101 8.61868C6.92166 8.40374 9.38363 8.76197 11.318 9.69335C12.2755 10.1493 13.0636 10.7224 13.6628 11.3933C14.3336 12.1358 14.7179 12.9955 14.8351 13.8813C14.9068 14.8583 14.7895 16.7536 12.3276 18.4991C10.797 19.5738 8.69324 20.3879 6.01633 20.8895C5.99028 21.8729 5.99028 22.8499 5.91864 23.8073C5.89258 24.6475 5.22824 25.3119 4.38805 25.3119H4.3164Z" fill="white"/>
<path d="M28.2327 25.2858H28.1155C27.2818 25.2858 26.6305 24.6865 26.5588 23.8529C26.5588 23.7356 26.5588 23.664 26.5328 23.5923L26.4351 23.7096C25.9336 24.2567 25.3344 24.6214 24.6896 24.908C23.9992 25.1685 23.3283 25.2923 22.6835 25.2923C21.8433 25.2923 21.0813 25.1229 20.2932 24.7647C19.5311 24.4065 18.8342 23.9245 18.235 23.2797C16.6328 21.6514 15.8447 19.3848 15.9163 16.7991C15.988 15.6267 16.1573 14.5065 16.5351 13.4774C16.8933 12.5004 17.3948 11.6342 18.0201 10.8982C19.2641 9.39366 20.964 8.55347 22.6835 8.55347C23.9992 8.55347 25.1455 9.00939 26.129 9.89518C26.2462 9.13314 26.9171 8.55347 27.7052 8.57952C28.5453 8.60557 29.2357 9.32202 29.2097 10.1818C29.0403 15.2294 29.353 19.7691 29.6656 23.6184C29.7373 24.4781 29.0925 25.2206 28.2327 25.2923V25.2858ZM25.5298 16.988C25.5298 13.7379 24.3574 11.6537 22.6835 11.6537C21.0096 11.6537 19.0948 13.6402 19.0231 16.8903C18.9515 18.6098 19.479 20.0948 20.456 21.1238C21.1008 21.7947 21.915 22.179 22.677 22.179C23.2762 22.179 23.8038 21.964 24.2336 21.5081C25.0673 20.6484 25.5232 19.0657 25.5232 16.988H25.5298Z" fill="white"/>
<path d="M42.744 18.017C43.6038 18.043 44.3007 18.7595 44.2746 19.6192C44.2486 21.0326 43.7731 22.2961 42.9329 23.3252C42.1188 24.2826 41.1158 24.9014 39.9434 25.1684C39.5591 25.2661 39.1814 25.3117 38.7971 25.3117C38.1979 25.3117 37.6508 25.214 37.1688 24.9991C36.1853 24.6148 35.4493 23.9439 34.9478 22.993C34.3746 21.8662 34.036 20.1207 33.9643 17.6392L32.551 17.6848C32.551 17.6848 32.5249 17.7109 32.5054 17.7109C31.6652 17.7109 30.9748 17.04 30.9487 16.2063C30.9227 15.3466 31.5935 14.6301 32.4337 14.6041L33.9904 14.5324C34.062 12.6892 34.2053 11.113 34.277 10.3705C34.277 10.2728 34.303 10.1817 34.303 10.11C34.303 9.41961 34.7785 8.79435 35.4754 8.62501C35.9508 8.50777 36.4784 8.59896 36.8627 8.95718C37.032 9.12652 37.4619 9.50428 37.3902 10.2468V10.364C37.3902 10.4357 37.3642 10.5334 37.3642 10.6506C37.2925 11.2954 37.1753 12.7088 37.1037 14.4022L39.8066 14.3045C40.6664 14.2328 41.3828 14.9232 41.4089 15.7895C41.4805 16.6492 40.7901 17.3657 39.9239 17.3917L37.0776 17.5089C37.1493 20.1663 37.5075 21.241 37.6964 21.5471C38.0806 22.2896 38.8231 22.2375 39.2269 22.1463C40.1844 21.9314 41.1418 21.0716 41.1614 19.5411C41.1874 18.7009 41.8778 18.0105 42.718 18.0105H42.744V18.017ZM34.3291 10.4552C34.4007 10.7157 34.4723 10.9567 34.3551 10.5008C34.3551 10.4747 34.3291 10.4747 34.3291 10.4552Z" fill="white"/>
<path d="M49.2507 20.3878C49.179 21.6057 49.1334 22.7781 49.2507 23.5206C49.3679 24.3803 48.7947 25.1684 47.935 25.2922C47.8894 25.3182 47.8178 25.3182 47.694 25.3182C46.9515 25.3182 46.2807 24.7711 46.1634 24.0026C45.9941 22.9279 46.0657 21.6383 46.1634 20.2249C46.2351 18.6227 46.3328 16.8772 46.0657 15.2749C45.9485 14.4348 46.5217 13.6467 47.3553 13.4838C48.189 13.3666 48.9836 13.9398 49.1465 14.7734C49.4591 16.6883 49.3353 18.6488 49.2442 20.3943L49.2507 20.3878Z" fill="white"/>
<path d="M62.7851 18.017C63.6448 18.043 64.3417 18.7595 64.3157 19.6192C64.2896 21.0326 63.8141 22.2961 62.9739 23.3252C62.1598 24.2826 61.1568 24.9014 59.9844 25.1684C59.6001 25.2661 59.2224 25.3117 58.8381 25.3117C58.2389 25.3117 57.6918 25.214 57.2098 24.9991C56.2263 24.6148 55.4903 23.9439 54.9888 22.993C54.4157 21.8662 54.077 20.1207 54.0053 17.6392L52.592 17.6848C52.592 17.6848 52.5659 17.7109 52.5464 17.7109C51.7062 17.7109 51.0158 17.04 50.9897 16.2063C50.9637 15.3466 51.6345 14.6301 52.4747 14.6041L54.0314 14.5324C54.103 12.6892 54.2463 11.113 54.318 10.3705C54.318 10.2728 54.344 10.1817 54.344 10.11C54.344 9.41961 54.8195 8.79435 55.5164 8.62501C55.9918 8.50777 56.5194 8.59896 56.9037 8.95718C57.073 9.12652 57.5029 9.50428 57.4313 10.2468V10.364C57.4313 10.4357 57.4052 10.5334 57.4052 10.6506C57.3336 11.2954 57.2163 12.7088 57.1447 14.4022L59.8476 14.3045C60.7074 14.2328 61.4238 14.9232 61.4499 15.7895C61.5215 16.6492 60.8311 17.3657 59.9649 17.3917L57.1186 17.5089C57.1903 20.1663 57.5485 21.241 57.7374 21.5471C58.1216 22.2896 58.8641 22.2375 59.268 22.1463C60.2254 21.9314 61.1828 21.0716 61.2024 19.5411C61.2284 18.7009 61.9188 18.0105 62.759 18.0105H62.7851V18.017ZM54.3701 10.4552C54.4417 10.7157 54.5134 10.9567 54.3961 10.5008C54.3961 10.4747 54.3701 10.4747 54.3701 10.4552Z" fill="white"/>
<path d="M77.6546 25.2858H77.5374C76.7037 25.2858 76.0524 24.6865 75.9807 23.8529C75.9807 23.7356 75.9807 23.664 75.9547 23.5923L75.857 23.7096C75.3554 24.2567 74.7562 24.6214 74.1114 24.908C73.421 25.1685 72.7502 25.2923 72.1054 25.2923C71.2652 25.2923 70.5032 25.1229 69.7151 24.7647C68.953 24.4065 68.2561 23.9245 67.6569 23.2797C66.0547 21.6514 65.2666 19.3848 65.3382 16.7991C65.4099 15.6267 65.5792 14.5065 65.957 13.4774C66.3152 12.5004 66.8167 11.6342 67.442 10.8982C68.686 9.39366 70.3859 8.55347 72.1054 8.55347C73.421 8.55347 74.5674 9.00939 75.5508 9.89518C75.6681 9.13314 76.3389 8.55347 77.127 8.57952C77.9672 8.60557 78.6576 9.32202 78.6316 10.1818C78.4622 15.2294 78.7749 19.7691 79.0875 23.6184C79.1591 24.4781 78.5143 25.2206 77.6546 25.2923V25.2858ZM74.9516 16.988C74.9516 13.7379 73.7793 11.6537 72.1054 11.6537C70.4315 11.6537 68.5166 13.6402 68.445 16.8903C68.3733 18.6098 68.9009 20.0948 69.8779 21.1238C70.5227 21.7947 71.3368 22.179 72.0989 22.179C72.6981 22.179 73.2256 21.964 73.6555 21.5081C74.4892 20.6484 74.9451 19.0657 74.9451 16.988H74.9516Z" fill="white"/>
<path d="M84.539 24.9276C82.7934 24.4522 81.5234 23.4948 80.9502 22.2247C80.592 21.4366 80.9502 20.5248 81.7383 20.1665C82.5264 19.8083 83.4382 20.1665 83.7965 20.9546C84.1807 21.7948 86.3301 22.4592 88.3166 22.0098C88.7204 21.9381 89.9449 21.5799 89.9449 20.8374C89.9449 20.7397 89.9709 20.5248 89.4173 20.1665C88.8442 19.7823 87.9844 19.4501 87.053 19.0919C85.783 18.5904 84.4934 18.1084 83.4187 17.2747C82.0054 16.2 81.315 14.8323 81.3605 13.1388C81.4322 11.7255 81.9793 10.6052 82.9628 9.76503C83.803 9.07464 84.8516 8.66431 86.0956 8.54707C87.509 8.37773 88.9875 8.64477 90.3292 9.19188C91.9314 9.86273 92.9344 10.8658 93.221 12.0837C93.4359 12.9174 92.9084 13.7576 92.0747 13.9725C91.2345 14.1614 90.4269 13.6599 90.2119 12.8262C90.1403 12.6569 89.7821 12.2986 88.9419 11.986C88.0561 11.6278 87.027 11.5106 86.1933 11.6734C84.5455 11.9339 84.4738 12.8458 84.4738 13.2496C84.4478 13.8944 84.6888 14.3242 85.288 14.7802C86.0305 15.3273 87.1312 15.7376 88.1798 16.1935C89.2349 16.5973 90.3096 17.0077 91.1694 17.6069C92.3873 18.4471 93.0321 19.4957 93.0582 20.7657C93.0842 21.9381 92.6544 22.9411 91.7425 23.7292C91.0261 24.348 90.1142 24.7844 89.0135 25.0188C88.3687 25.1882 87.6718 25.2598 86.9814 25.2598C86.1412 25.2598 85.3336 25.1426 84.539 24.9276Z" fill="white"/>
<path d="M106.071 10.5791C106 11.4193 105.231 12.038 104.371 11.9403C104.345 11.9403 102.697 11.771 100.854 11.6798C98.7766 11.5821 97.7475 11.6798 97.1939 11.7515C97.1678 12.6828 97.2199 14.3111 97.2395 15.8613C98.9589 15.959 100.398 15.9329 102.144 15.8613L103.818 15.7896C104.677 15.7896 105.374 16.4605 105.394 17.3202C105.42 18.1799 104.749 18.8769 103.889 18.8964C103.316 18.9224 102.789 18.942 102.242 18.942C101.186 18.9876 100.183 19.0136 99.2064 19.0136C98.6072 19.0136 97.9885 19.0136 97.3176 18.9876L97.3893 21.7361V23.169C97.3632 23.7422 97.3632 24.3153 96.9138 24.7973C96.5816 25.1099 96.1974 25.2532 95.787 25.2532C94.9273 25.2532 94.2304 24.5628 94.2304 23.7226C94.2304 23.5533 94.2565 23.4817 94.276 23.3188C94.276 22.6284 94.2499 19.7561 94.1783 17.6263C94.0806 13.7771 94.035 11.4323 94.1327 10.6898C94.2043 10.2339 94.4193 9.47186 95.4744 9.01594C95.8587 8.8466 96.3341 8.72936 96.9073 8.65772C97.7475 8.54048 98.8417 8.51443 100.209 8.54048C102.43 8.61213 104.612 8.85311 104.704 8.85311C105.563 8.95081 106.162 9.71285 106.065 10.5726L106.071 10.5791Z" fill="#D67D31"/>
<path d="M111.477 24.9276C110.044 24.4261 108.944 23.4687 108.201 22.0553C107.387 20.5964 107.055 18.7336 107.198 16.5061C107.367 14.1418 108.012 12.1553 109.159 10.7224C109.712 10.032 110.357 9.50448 111.093 9.09416C111.881 8.70988 112.669 8.521 113.457 8.54705C114.271 8.5731 115.033 8.78804 115.75 9.19185C116.492 9.64777 117.092 10.2209 117.593 10.9374C118.648 12.3963 119.169 14.4545 119.241 16.8448C119.241 17.3007 119.072 17.685 118.739 18.0172C118.381 18.3298 117.997 18.447 117.548 18.421C115.828 18.2516 114.154 18.3949 112.337 18.5187C111.692 18.5903 111.021 18.6164 110.35 18.6359C110.448 19.398 110.637 20.0493 110.924 20.5703C111.282 21.2607 111.809 21.7166 112.5 21.9837C113.242 22.2247 114.004 22.2247 114.845 21.9837C115.587 21.7948 116.186 21.4105 116.492 20.9546C116.968 20.2642 117.951 20.0949 118.642 20.5964C119.332 21.0718 119.501 22.0553 119.026 22.7457C118.284 23.7748 117.137 24.5173 115.724 24.9667C115.027 25.1556 114.337 25.2793 113.646 25.2793C112.884 25.2793 112.161 25.1621 111.471 24.9211L111.477 24.9276ZM113.34 11.6538C112.695 11.6538 112.122 11.986 111.595 12.6568C111.139 13.204 110.683 14.0702 110.422 15.5291C110.969 15.5031 111.549 15.4836 112.122 15.4119C113.392 15.3403 114.656 15.2426 115.997 15.2426C115.809 13.9986 115.424 13.2105 115.066 12.709C114.565 12.0186 114.011 11.6538 113.366 11.6538H113.34Z" fill="#D67D31"/>
<path d="M122.738 25.2858C121.95 25.2858 121.28 24.7127 121.208 23.8725C120.921 21.0979 120.993 18.6359 121.065 15.933C121.136 13.7315 121.234 11.4845 121.065 8.99645C120.993 8.13671 121.664 7.42027 122.524 7.34862C123.383 7.27698 124.1 7.96737 124.171 8.80757C124.341 11.4128 124.243 13.7315 124.171 16.0307C124.1 18.6099 124.028 21.0067 124.289 23.5859C124.36 24.4261 123.741 25.1881 122.901 25.2858H122.732H122.738Z" fill="#D67D31"/>
<path d="M129.818 20.3878C129.747 21.6057 129.701 22.7781 129.818 23.5206C129.936 24.3803 129.362 25.1684 128.503 25.2922C128.457 25.3182 128.385 25.3182 128.262 25.3182C127.519 25.3182 126.848 24.7711 126.731 24.0026C126.562 22.9279 126.633 21.6383 126.731 20.2249C126.803 18.6227 126.9 16.8772 126.633 15.2749C126.516 14.4348 127.089 13.6467 127.923 13.4838C128.763 13.3666 129.551 13.9398 129.714 14.7734C130.027 16.6883 129.903 18.6488 129.812 20.3943L129.818 20.3878Z" fill="#D67D31"/>
<path d="M136.156 25.0251C134.814 24.6213 133.713 23.7094 132.977 22.3938C132.235 21.0325 131.877 19.3066 131.948 17.2549C132.02 14.8385 132.573 12.8585 133.596 11.3279C134.553 9.89505 135.915 8.96367 137.445 8.67058C138.618 8.41005 139.862 8.64453 140.91 9.21768C142.011 9.81689 142.825 10.7222 143.327 11.9206C143.685 12.7087 143.281 13.5945 142.486 13.9527C141.698 14.311 140.813 13.9267 140.454 13.1386C139.998 12.0835 139.041 11.5103 138.012 11.7057C137.295 11.849 136.67 12.3049 136.169 13.0474C135.478 14.0765 135.094 15.5354 135.022 17.3526C134.951 18.8376 135.211 21.5341 137.081 22.0877C138.513 22.5436 140.5 21.6839 141.457 20.2966C141.913 19.5541 142.871 19.3912 143.607 19.8406C144.297 20.3161 144.519 21.2996 144.037 21.99C143.196 23.2079 142.005 24.211 140.572 24.7841C139.712 25.1423 138.8 25.3117 137.94 25.3117C137.322 25.3117 136.722 25.214 136.149 25.0251H136.156Z" fill="#D67D31"/>
<path d="M150.068 24.9276C148.635 24.4261 147.534 23.4687 146.792 22.0553C145.978 20.5964 145.645 18.7336 145.789 16.5061C145.958 14.1418 146.603 12.1553 147.749 10.7224C148.296 10.032 148.948 9.50448 149.684 9.09416C150.472 8.70988 151.26 8.521 152.048 8.54705C152.862 8.5731 153.624 8.78804 154.34 9.19185C155.083 9.64777 155.682 10.2209 156.184 10.9374C157.239 12.3963 157.76 14.4545 157.832 16.8448C157.832 17.3007 157.662 17.685 157.33 18.0172C156.972 18.3298 156.588 18.447 156.138 18.421C154.419 18.2516 152.745 18.3949 150.928 18.5187C150.283 18.5903 149.612 18.6164 148.941 18.6359C149.039 19.398 149.228 20.0493 149.514 20.5703C149.872 21.2607 150.4 21.7166 151.09 21.9837C151.833 22.2247 152.595 22.2247 153.435 21.9837C154.178 21.7948 154.777 21.4105 155.083 20.9546C155.558 20.2642 156.542 20.0949 157.232 20.5964C157.923 21.0718 158.092 22.0553 157.617 22.7457C156.874 23.7748 155.728 24.5173 154.314 24.9667C153.618 25.1556 152.927 25.2793 152.237 25.2793C151.475 25.2793 150.752 25.1621 150.061 24.9211L150.068 24.9276ZM151.931 11.6538C151.286 11.6538 150.713 11.986 150.185 12.6568C149.729 13.204 149.273 14.0702 149.013 15.5291C149.56 15.5031 150.139 15.4836 150.713 15.4119C151.983 15.3403 153.246 15.2426 154.588 15.2426C154.399 13.9986 154.015 13.2105 153.657 12.709C153.155 12.0186 152.601 11.6538 151.957 11.6538H151.931Z" fill="#D67D31"/>
<path d="M163.27 24.9276C161.524 24.4522 160.254 23.4948 159.681 22.2247C159.323 21.4366 159.681 20.5248 160.469 20.1665C161.257 19.8083 162.169 20.1665 162.527 20.9546C162.912 21.7948 165.061 22.4592 167.048 22.0098C167.451 21.9381 168.676 21.5799 168.676 20.8374C168.676 20.7397 168.702 20.5248 168.148 20.1665C167.575 19.7823 166.715 19.4501 165.784 19.0919C164.514 18.5904 163.224 18.1084 162.15 17.2747C160.736 16.2 160.046 14.8323 160.092 13.1388C160.163 11.7255 160.717 10.6052 161.694 9.76503C162.534 9.07464 163.583 8.66431 164.827 8.54707C166.24 8.37773 167.718 8.64477 169.06 9.19188C170.662 9.86273 171.665 10.8658 171.952 12.0837C172.167 12.9174 171.639 13.7576 170.806 13.9725C169.965 14.1614 169.158 13.6599 168.943 12.8262C168.871 12.6569 168.513 12.2986 167.673 11.986C166.787 11.6278 165.758 11.5106 164.924 11.6734C163.276 11.9339 163.205 12.8458 163.205 13.2496C163.179 13.8944 163.42 14.3242 164.019 14.7802C164.761 15.3273 165.862 15.7376 166.911 16.1935C167.966 16.5973 169.041 17.0077 169.9 17.6069C171.118 18.4471 171.763 19.4957 171.789 20.7657C171.815 21.9381 171.385 22.9411 170.473 23.7292C169.757 24.348 168.845 24.7844 167.744 25.0188C167.1 25.1882 166.403 25.2598 165.712 25.2598C164.872 25.2598 164.065 25.1426 163.27 24.9276Z" fill="#D67D31"/>
<path d="M4.77233 5.51836C5.49529 6.61257 6.837 6.76237 7.8726 5.94823C9.20128 4.89961 9.58555 1.92961 8.4197 0.653037C7.87911 0.0603402 6.73279 -0.141568 5.93168 0.0994191C5.15661 0.333893 4.6551 1.09593 4.43365 1.83843C4.3099 2.23573 4.20569 2.71771 4.2122 3.14106C4.21872 3.85751 4.37503 4.91264 4.77885 5.53139L4.77233 5.51836Z" fill="white"/>
<path d="M15.2781 3.33C15.2325 3.08902 15.1739 2.85454 15.0632 2.65263C14.9525 2.45073 14.7701 2.28139 14.5812 2.1381C14.4119 2.01435 14.236 1.90362 14.0471 1.80593C13.8583 1.70823 13.6694 1.61053 13.4675 1.5454C13.2656 1.48027 13.0506 1.43468 12.8487 1.41514C12.6468 1.3956 12.4254 1.41514 12.2169 1.45422C12.0085 1.49329 11.8066 1.53889 11.6177 1.6431C11.4419 1.74079 11.266 1.87106 11.1227 2.03389C10.986 2.18369 10.8752 2.37257 10.758 2.57448C10.6538 2.75685 10.5626 2.95224 10.4779 3.16066C10.3933 3.36908 10.3281 3.56448 10.263 3.77941C10.1979 3.99434 10.1523 4.20276 10.1132 4.4177C10.0741 4.63263 10.0415 4.85408 10.0285 5.06901C10.0155 5.29697 10.022 5.51191 10.0285 5.72033C10.0415 5.9548 10.0611 6.17625 10.1197 6.36513C10.1913 6.5996 10.3216 6.80151 10.4714 6.97737C10.6212 7.15322 10.7971 7.31605 11.012 7.43329C11.1813 7.52447 11.3898 7.60263 11.6112 7.66125C11.8131 7.71335 12.0281 7.75895 12.243 7.77848C12.4579 7.79802 12.6794 7.77197 12.8813 7.73289C13.0962 7.69381 13.2981 7.61566 13.474 7.50493C13.6629 7.38118 13.8387 7.21835 14.0081 7.0425C14.1774 6.86664 14.3142 6.69079 14.4575 6.49539C14.6007 6.3 14.731 6.1046 14.8417 5.9027C14.959 5.68776 15.0762 5.47283 15.1544 5.26441C15.226 5.07553 15.2456 4.85408 15.2846 4.62612C15.3172 4.4177 15.3302 4.20276 15.3302 3.98132C15.3302 3.75987 15.3172 3.54494 15.2781 3.33652V3.33Z" fill="white"/>
<path d="M0.636497 3.98112C-0.535871 5.04277 -0.0083053 7.74573 1.56136 8.14954C2.49926 8.39053 3.07242 7.62849 3.24176 6.80132C3.48274 5.60941 3.05939 3.44053 1.39854 3.64244C1.0859 3.68152 0.831891 3.80527 0.636497 3.98112Z" fill="white"/>
<path d="M14.0993 8.15614C13.8453 8.54042 13.702 8.98331 13.7997 9.48483C13.8844 9.92121 14.3207 10.2013 14.7115 10.3315C15.9165 10.7158 17.0498 9.99285 17.6294 8.9247C18.0332 8.1822 18.2482 7.00983 17.3884 6.5018C16.5417 6.00029 15.708 6.74279 15.0698 7.19871C14.7115 7.45924 14.3468 7.77838 14.0928 8.15614H14.0993Z" fill="white"/>
<path d="M11.6958 13.5166C11.559 11.8232 9.42919 11.7581 8.62155 12.8979C7.64458 11.4194 5.81439 11.7776 5.28031 12.8262C4.41406 14.4285 7.94419 17.2226 8.38057 17.151C9.08399 17.1184 11.8325 15.2817 11.6892 13.5231L11.6958 13.5166Z" fill="#31241C"/>
<path d="M49.9477 8.42323C49.5894 6.89264 47.6355 7.13363 47.0558 8.27994C45.9616 7.06849 44.3398 7.64816 44.0011 8.67724C43.4345 10.2599 47.0428 12.3181 47.4271 12.1943C48.0588 12.0641 50.3189 10.0059 49.9477 8.42323Z" fill="white"/>
<path d="M131.258 8.42323C130.899 6.89264 128.946 7.13363 128.366 8.27994C127.272 7.06849 125.65 7.64816 125.311 8.67724C124.745 10.2599 128.353 12.3181 128.737 12.1943C129.369 12.0641 131.629 10.0059 131.258 8.42323Z" fill="#D67D31"/>
</svg>
