<svg width="28" height="25" viewBox="0 0 28 25" fill="none" xmlns="http://www.w3.org/2000/svg">
<path d="M16.7218 0C17.4562 0.195489 18.1228 0.533835 18.7168 1.00501C19.8271 1.88471 20.7669 2.89724 21.1679 4.30075C21.3684 5 21.4311 5.69925 21.0426 6.37093C20.3785 7.51378 18.6917 7.76441 17.8371 6.71679C17.6291 6.46366 17.4436 6.19048 17.2607 5.91729C16.7594 5.17293 16.2657 4.42606 15.7694 3.6792C15.7218 3.60652 15.6692 3.53383 15.6341 3.45363C15.5489 3.26065 15.6115 3.05263 15.777 2.94486C15.9424 2.83709 16.1554 2.86466 16.3008 3.02005C16.3609 3.08521 16.4085 3.1604 16.4562 3.23308C17.0727 4.15038 17.6767 5.07519 18.3058 5.98496C18.8271 6.73935 19.792 6.75188 20.2907 6.03258C20.5489 5.65915 20.5338 5.25063 20.4562 4.83208C20.3133 4.06015 19.9348 3.41103 19.4336 2.82206C18.7394 2.00752 17.9424 1.32832 16.9323 0.929825C16.5689 0.786967 16.2306 0.794486 15.9148 1.04261C15.3233 1.50376 14.7318 1.96491 14.1529 2.41604C14.4536 2.88722 14.7444 3.28822 14.98 3.7218C15.6316 4.90727 15.9749 6.19549 16.1905 7.5213C16.3709 8.63158 16.4361 9.74937 16.386 10.8722C16.3409 11.8822 16.1579 12.8596 15.5865 13.7243C15.0426 14.5514 14.2531 15.0451 13.3183 15.2732C11.4261 15.7343 9.52382 15.7594 7.65415 15.1554C6.40853 14.7519 5.61405 13.8772 5.22808 12.6291C4.98748 11.8471 4.91981 11.0426 4.92482 10.2331C4.93234 8.86717 5.06768 7.51629 5.41104 6.19048C5.74938 4.87719 6.24061 3.63409 7.11029 2.56892C7.13034 2.54386 7.14287 2.51629 7.16542 2.4787C6.57144 1.90977 5.96242 1.37093 5.25816 0.947368C4.97244 0.774436 4.68923 0.819549 4.40603 0.929825C3.35339 1.33835 2.53385 2.05263 1.82457 2.90977C1.2757 3.57143 0.907279 4.31078 0.824573 5.18045C0.744372 6.00752 1.42106 6.66416 2.24312 6.54887C2.61154 6.49624 2.8371 6.24561 3.03009 5.96742C3.65415 5.05514 4.26568 4.13534 4.88472 3.22055C4.93485 3.14787 4.98247 3.07268 5.04262 3.01003C5.19049 2.85965 5.37094 2.8396 5.54638 2.94987C5.72432 3.06015 5.76943 3.23559 5.70678 3.43358C5.68923 3.48622 5.65916 3.53383 5.62908 3.58145C4.97244 4.5589 4.33084 5.54386 3.65415 6.50877C2.92733 7.54386 1.66417 7.69674 0.704272 6.86967C0.0426177 6.30075 -0.0902143 5.56391 0.0501365 4.74436C0.21555 3.77193 0.686728 2.95489 1.3158 2.22306C2.05014 1.37093 2.89976 0.659148 3.94989 0.220551C4.16041 0.130326 4.38598 0.0726817 4.60151 0C4.77695 0 4.9549 0 5.13034 0C6.17294 0.393484 6.94738 1.16291 7.74187 1.87469C9.70427 0.451128 11.6416 0.45614 13.5815 1.87469C14.3835 1.15038 15.1554 0.393484 16.193 0H16.7218ZM15.579 10.1028C15.5765 8.91228 15.4536 7.73684 15.178 6.57895C14.8521 5.21805 14.3534 3.94236 13.4035 2.87469C12.3058 1.6416 10.4687 1.27318 9.01756 2.03509C7.995 2.57393 7.32833 3.45113 6.86718 4.4787C5.82457 6.81203 5.55139 9.26566 5.86467 11.782C6.05014 13.2782 7.01004 14.2632 8.49374 14.5614C9.93986 14.8521 11.3935 14.8596 12.8371 14.5564C13.98 14.3183 14.8496 13.7143 15.2582 12.5639C15.5414 11.7644 15.5865 10.9373 15.5815 10.1003L15.579 10.1028Z" fill="#D67D31"/>
<path d="M8.12781 21.3609C8.03508 20.7995 7.94987 20.2556 7.85713 19.7118C7.70676 18.812 7.55388 17.9123 7.40099 17.0125C7.39598 16.99 7.39347 16.9649 7.39097 16.9398C7.3634 16.6516 7.49373 16.4536 7.72931 16.421C7.96741 16.3885 8.15287 16.5413 8.203 16.8246C8.28571 17.2982 8.3634 17.7719 8.44109 18.2456C8.604 19.2155 8.76691 20.188 8.9223 21.1579C8.94235 21.2807 8.98495 21.3308 9.11027 21.3559C9.31578 21.3985 9.42104 21.5464 9.41603 21.7569C9.40851 21.9699 9.28821 22.1078 9.0827 22.1353C8.86215 22.1629 8.63408 22.1403 8.41352 22.1704C8.203 22.198 7.97994 22.2281 7.78946 22.3158C7.29573 22.5363 7.23057 23.1579 7.64661 23.5012C8.1228 23.8922 9.27067 23.9148 9.7619 23.5388C10.0426 23.3233 10.2055 23.0401 10.2331 22.6842C10.2431 22.5564 10.2481 22.4286 10.2481 22.3007C10.2481 20.5464 10.2481 18.792 10.2481 17.0376C10.2481 16.6216 10.3784 16.4236 10.6516 16.4185C10.9348 16.4135 11.0702 16.614 11.0702 17.0451C11.0702 18.8145 11.0702 20.5865 11.0702 22.3559C11.0702 23.3258 11.5464 23.812 12.5188 23.7895C12.8471 23.782 13.188 23.7168 13.4937 23.604C13.8446 23.4737 13.9699 23.1905 13.9273 22.8321C13.8872 22.4987 13.6692 22.3158 13.3684 22.2506C13.0977 22.1905 12.8145 22.1855 12.5363 22.1579C12.4261 22.1479 12.3108 22.1529 12.203 22.1278C12.0075 22.0827 11.9022 21.9474 11.8997 21.7494C11.8947 21.5489 11.9975 21.396 12.1905 21.3609C12.3433 21.3308 12.3759 21.2606 12.3985 21.1253C12.6291 19.7118 12.8697 18.3007 13.1078 16.8872C13.1178 16.8321 13.1253 16.7769 13.1403 16.7243C13.2105 16.5063 13.3885 16.391 13.5965 16.4236C13.802 16.4561 13.9549 16.6266 13.9273 16.8521C13.8722 17.3033 13.7945 17.7544 13.7193 18.203C13.5539 19.198 13.3835 20.1905 13.218 21.1855C13.208 21.2381 13.218 21.2957 13.218 21.3434C13.4436 21.4185 13.6717 21.4687 13.8797 21.5664C14.3985 21.807 14.6992 22.218 14.7494 22.797C14.802 23.411 14.5689 23.8922 14.0576 24.2331C13.2205 24.7895 11.7895 24.7594 11.0376 24.1729C10.9073 24.0702 10.792 23.9474 10.6266 23.7945C10.594 23.8471 10.5689 23.9073 10.5263 23.9524C10.1203 24.3809 9.62155 24.6015 9.03257 24.6165C8.4837 24.6316 7.94235 24.6065 7.44109 24.3459C6.81202 24.015 6.50876 23.4536 6.57643 22.7444C6.63408 22.1303 7.07768 21.6441 7.7619 21.4461C7.86966 21.416 7.97743 21.396 8.12781 21.3609Z" fill="#D67D31"/>
<path d="M3.87217 21.386C3.46114 20.3459 3.29573 19.2832 3.28069 18.1955C3.26566 17.0952 3.5639 16.1253 4.44109 15.3935C4.77693 15.1128 5.15287 14.9073 5.58145 14.8045C5.84962 14.7393 6.05012 14.8346 6.12531 15.0601C6.19548 15.2757 6.0852 15.4962 5.82455 15.5764C5.19047 15.7744 4.70175 16.1454 4.39097 16.7343C4.17794 17.1403 4.09774 17.5814 4.10275 18.0351C4.11528 19.2456 4.27317 20.4286 4.84711 21.5213C5.01754 21.8471 4.8421 22.1253 4.47117 22.1629C4.25814 22.1855 4.04009 22.2005 3.83207 22.2556C3.5238 22.3383 3.31578 22.5288 3.28821 22.8772C3.26064 23.2155 3.41353 23.4511 3.69673 23.6015C4.12531 23.8296 4.58896 23.8471 5.05262 23.7594C5.19047 23.7343 5.31578 23.619 5.43358 23.5263C5.6441 23.3609 5.87468 23.3534 6.03508 23.5238C6.19047 23.6892 6.20049 23.9323 6.00751 24.1002C5.8045 24.2757 5.58145 24.4762 5.33333 24.5363C4.60651 24.7093 3.8822 24.6717 3.22305 24.2707C2.62906 23.9098 2.38345 23.3634 2.49122 22.6767C2.59398 22.015 3.02756 21.6491 3.63658 21.4536C3.70425 21.4311 3.77443 21.416 3.87468 21.386H3.87217Z" fill="#D67D31"/>
<path d="M17.4637 21.3684C17.6842 21.4561 17.8922 21.5188 18.0802 21.619C18.6216 21.9073 18.8697 22.3834 18.8622 22.9799C18.8521 23.6366 18.5013 24.0902 17.9248 24.3734C17.381 24.6391 16.7945 24.6541 16.208 24.5965C15.8521 24.5614 15.5614 24.3709 15.3208 24.1103C15.1404 23.9123 15.1354 23.6742 15.3058 23.5113C15.4637 23.3559 15.6892 23.3609 15.8897 23.5263C16.3584 23.9148 17.381 23.8847 17.8221 23.4662C18.188 23.1203 18.1128 22.5263 17.6516 22.3258C17.4311 22.2306 17.1755 22.193 16.9323 22.1729C16.4562 22.1328 16.2983 21.8697 16.5188 21.4411C16.9599 20.5865 17.1404 19.6616 17.198 18.7143C17.2356 18.1153 17.2632 17.5138 17.0301 16.9373C16.7669 16.2882 16.3033 15.8571 15.6466 15.6316C15.2732 15.5037 15.1228 15.3233 15.198 15.0702C15.2807 14.802 15.5013 14.7318 15.8973 14.8496C17.0577 15.1955 17.9399 16.3408 18.0226 17.6391C18.1003 18.8446 17.9499 20.02 17.5389 21.1579C17.5138 21.2256 17.4912 21.2932 17.4662 21.3709L17.4637 21.3684Z" fill="#D67D31"/>
<path d="M2.28074 13.2306C2.47122 13.7268 2.65418 14.2281 2.85718 14.7193C2.9449 14.9323 3.07523 15.1278 3.18551 15.3333C3.32084 15.5865 3.27322 15.8221 3.0652 15.9449C2.8647 16.0627 2.6241 15.985 2.47874 15.7444C1.84967 14.6917 1.40104 13.5739 1.41859 12.3283C1.42611 11.8872 1.5439 11.4461 1.63663 11.01C1.68175 10.797 1.83463 10.6592 2.07272 10.6767C2.29578 10.6942 2.41358 10.8371 2.45117 11.0476C2.59653 11.8471 2.87473 12.599 3.41358 13.2155C3.67924 13.5188 4.01508 13.7619 4.32335 14.0276C4.5038 14.183 4.55142 14.376 4.44616 14.5589C4.33588 14.7519 4.12034 14.8145 3.9023 14.7168C3.84465 14.6917 3.78952 14.6567 3.73688 14.6216C3.23814 14.2882 2.82711 13.8647 2.49378 13.3659C2.45618 13.3083 2.41608 13.2481 2.37849 13.1905L2.28325 13.2306H2.28074Z" fill="#D67D31"/>
<path d="M11.1805 11.4411C11.3409 11.985 11.975 12.401 12.4687 12.2707C12.5915 12.2381 12.7068 12.1504 12.8021 12.0601C12.9775 11.8972 13.1905 11.8596 13.3635 11.9875C13.5364 12.1178 13.574 12.3383 13.4562 12.5438C13.2156 12.9674 12.5865 13.2105 12.0201 13.1053C11.4662 13.0025 11.0326 12.7068 10.6767 12.2682C10.5163 12.416 10.371 12.5739 10.2006 12.7017C9.72436 13.0626 9.19805 13.2256 8.59905 13.0652C8.29329 12.9824 8.04015 12.8271 7.87223 12.5539C7.74692 12.3484 7.7795 12.1303 7.95243 11.995C8.12286 11.8621 8.35594 11.8772 8.50883 12.0576C8.73439 12.3208 9.01259 12.3559 9.31334 12.2556C9.71183 12.1228 9.99003 11.8471 10.1655 11.4436C10.0201 11.386 9.88477 11.3433 9.75945 11.2807C9.35344 11.0727 9.04517 10.7794 9.03013 10.2907C9.01509 9.802 9.28827 9.47117 9.6993 9.26315C10.366 8.92981 11.0477 8.92731 11.6968 9.30826C12.5138 9.78696 12.4988 10.7418 11.6767 11.218C11.5214 11.3083 11.3459 11.3684 11.1805 11.4411ZM10.6567 9.78946C10.4086 9.89222 10.1705 9.97242 9.95243 10.0902C9.80456 10.1704 9.81208 10.3032 9.9399 10.4235C10.2607 10.7268 11.0276 10.7368 11.3635 10.4411C11.5138 10.3083 11.5214 10.1654 11.3509 10.0727C11.1404 9.95989 10.9048 9.88971 10.6542 9.78946H10.6567Z" fill="#D67D31"/>
<path d="M8.82707 7.38095C8.50125 7.38847 8.21052 7.10527 8.20551 6.77945C8.2005 6.45113 8.47619 6.1604 8.802 6.15539C9.12782 6.14787 9.41604 6.42857 9.42356 6.75689C9.42857 7.08772 9.15539 7.37344 8.82707 7.38095Z" fill="#D67D31"/>
<path d="M13.1178 6.75941C13.1228 7.08773 12.8446 7.37595 12.5163 7.38096C12.1905 7.38598 11.9022 7.10528 11.8997 6.77695C11.8947 6.44613 12.1729 6.16041 12.4987 6.1554C12.8245 6.15039 13.1128 6.4336 13.1178 6.75941Z" fill="#D67D31"/>
<path d="M24.3659 0.912277V1.98245C24.7418 1.98245 25.1152 1.98245 25.4912 1.98245C25.9598 1.98245 26.1754 2.1228 26.1754 2.43107C26.1754 2.73684 25.9473 2.89223 25.4937 2.89473C25.1253 2.89473 24.7568 2.89473 24.3709 2.89473V3.94987C24.609 3.94987 24.8521 3.94987 25.0927 3.94987C25.2531 3.94987 25.416 3.94987 25.5764 3.94987C25.9548 3.95488 26.1754 4.1228 26.1754 4.41102C26.1754 4.70175 25.9674 4.85964 25.5764 4.86215C25.1804 4.86215 24.7819 4.86215 24.3684 4.86215V5.93233C24.5714 5.93233 24.7669 5.93233 24.9649 5.93233C25.7919 5.93233 26.619 5.93233 27.4436 5.93233C27.7944 5.93233 28.0075 6.11779 27.9974 6.401C27.9874 6.67418 27.7844 6.8421 27.4436 6.8421C26.4285 6.8421 25.411 6.8421 24.3734 6.8421V7.91228C24.7393 7.91228 25.1152 7.91228 25.4887 7.91228C25.9573 7.91228 26.1729 8.05513 26.1729 8.36341C26.1729 8.66917 25.9448 8.82456 25.4912 8.82456C25.1228 8.82456 24.7543 8.82456 24.3684 8.82456V9.87969C24.609 9.87969 24.8496 9.87969 25.0927 9.87969C25.2531 9.87969 25.416 9.87969 25.5764 9.87969C25.9548 9.88471 26.1729 10.0526 26.1729 10.3408C26.1729 10.6291 25.9624 10.7895 25.5739 10.792C25.1779 10.792 24.7794 10.792 24.3684 10.792V11.8622C24.609 11.8622 24.8446 11.8622 25.0801 11.8622C25.8696 11.8622 26.6566 11.8622 27.4461 11.8622C27.7869 11.8622 27.9899 12.0301 27.9999 12.3033C28.01 12.589 27.7969 12.7719 27.4461 12.7719C26.431 12.7719 25.4135 12.7719 24.3759 12.7719V13.8421C24.7418 13.8421 25.1177 13.8421 25.4937 13.8421C25.9624 13.8421 26.1779 13.985 26.1779 14.2932C26.1779 14.599 25.9498 14.7544 25.4937 14.7544C25.1253 14.7544 24.7568 14.7544 24.3709 14.7544V15.8095C24.6115 15.8095 24.8546 15.8095 25.0952 15.8095C25.2656 15.8095 25.436 15.807 25.609 15.8095C25.9649 15.817 26.1779 15.99 26.1754 16.2707C26.1754 16.5539 25.9674 16.7168 25.604 16.7193C25.1979 16.7218 24.7919 16.7193 24.3684 16.7193V17.7895C24.6691 17.7895 24.9598 17.7895 25.2506 17.7895C25.9824 17.7895 26.7142 17.7895 27.4461 17.7895C27.7869 17.7895 27.9899 17.9574 27.9974 18.2331C28.005 18.5188 27.7944 18.7017 27.441 18.7017C26.426 18.7017 25.4085 18.7017 24.3709 18.7017V19.7719C24.6992 19.7719 25.0375 19.7719 25.3759 19.7719C25.4887 19.7719 25.604 19.7669 25.7167 19.7744C25.9799 19.792 26.1553 19.9574 26.1704 20.1955C26.1854 20.4386 26.01 20.6516 25.7418 20.6742C25.4761 20.6942 25.2105 20.6817 24.9448 20.6842C24.7568 20.6842 24.5689 20.6842 24.3659 20.6842V21.7393C24.7017 21.7393 25.04 21.7393 25.3784 21.7393C25.5012 21.7393 25.6265 21.7318 25.7493 21.7469C26.0175 21.7794 26.1904 21.985 26.1729 22.2306C26.1553 22.4662 25.9774 22.6391 25.7142 22.6466C25.3258 22.6566 24.9348 22.6491 24.5463 22.6516C24.4912 22.6516 24.436 22.6591 24.3659 22.6667V23.7218C24.4761 23.7218 24.5789 23.7218 24.6791 23.7218C25.609 23.7218 26.5413 23.7218 27.4711 23.7218C27.7894 23.7218 27.9874 23.8972 27.9949 24.1654C28.0024 24.4411 27.7969 24.6316 27.4661 24.6316C26.2882 24.6341 25.1102 24.6341 23.9323 24.6316C23.604 24.6316 23.4436 24.4687 23.436 24.1454C23.436 24.0877 23.436 24.0326 23.436 23.9749C23.436 16.203 23.436 8.43107 23.436 0.659144C23.436 0.107766 23.5438 0.00250244 24.1052 0.00250244C25.208 0.00250244 26.3082 0.00250244 27.411 0.00250244C27.7869 0.00250244 28.0024 0.177941 27.9949 0.471174C27.9874 0.754382 27.7794 0.914783 27.4135 0.914783C26.406 0.914783 25.4009 0.914783 24.3608 0.914783L24.3659 0.912277Z" fill="#D67D31"/>
</svg>
