<svg width="30" height="32" viewBox="0 0 30 32" fill="none" xmlns="http://www.w3.org/2000/svg">
<g clip-path="url(#clip0_56999_1511)">
<path d="M15.5363 15.3466C12.8685 15.6661 12.4792 18.2322 10.2708 20.7398C7.03303 24.4188 7.97535 27.2607 10.2027 27.6599C12.4296 28.0608 14.0567 25.4344 16.4183 25.2609C16.4262 25.2611 16.4327 25.2589 16.4405 25.259C16.4484 25.2592 16.4549 25.257 16.4627 25.2572C18.8158 24.9924 20.8888 27.276 23.0082 26.4708C25.1253 25.667 25.539 22.7001 21.6897 19.6794C19.0664 17.6197 18.2186 15.1695 15.5381 15.3471L15.5363 15.3466Z" fill="#D67D31"/>
<path d="M8.90037 13.9599C10.5646 15.8611 10.9231 18.2749 9.6985 19.3515C8.4739 20.4282 6.13224 19.7605 4.46751 17.8611C2.80279 15.9617 2.44478 13.5461 3.66938 12.4695C4.89398 11.3928 7.23614 12.0586 8.90037 13.9599Z" fill="#D67D31"/>
<path d="M21.8111 12.76C20.518 14.9355 20.603 17.3757 22.0015 18.2096C23.4001 19.0436 25.5824 17.9569 26.8756 15.7814C28.1687 13.606 28.0837 11.1658 26.6851 10.3318C25.2865 9.49783 23.1042 10.5845 21.8111 12.76Z" fill="#D67D31"/>
<path d="M14.1951 8.29782C14.8989 10.871 14.1272 13.327 12.4717 13.7838C10.8161 14.2406 8.90217 12.5245 8.19839 9.95137C7.4946 7.37822 8.26631 4.92222 9.92186 4.46539C11.5774 4.00856 13.4914 5.72467 14.1951 8.29782Z" fill="#D67D31"/>
<path d="M15.5804 8.16873C15.3548 10.8289 16.557 13.1007 18.268 13.2445C19.9789 13.3882 21.5485 11.3493 21.7759 8.68967C22.0033 6.03 20.7993 3.75767 19.0883 3.61394C17.3774 3.47022 15.8078 5.50906 15.5804 8.16873Z" fill="#D67D31"/>
</g>
<defs>
<clipPath id="clip0_56999_1511">
<rect width="23.8004" height="25.5314" fill="white" transform="translate(6.71094 0.200073) rotate(15.2398)"/>
</clipPath>
</defs>
</svg>
