<svg width="28" height="24" viewBox="0 0 28 24" fill="none" xmlns="http://www.w3.org/2000/svg">
<path d="M27.9269 12.9304C28.056 12.1832 28.017 11.3822 27.8003 10.3297C27.4788 8.77167 26.9161 7.1917 25.9736 5.21368C25.4889 4.19536 24.7046 3.39438 23.6402 2.83516C22.4662 2.21978 21.1218 1.93162 19.412 1.93162C19.4047 1.93162 19.3949 1.93162 19.39 1.93162C19.2683 1.93162 19.0418 1.91209 18.8981 1.77778C17.6047 0.581197 16.0021 0 13.9976 0H13.9781C11.9833 0.004884 10.3831 0.588523 9.08733 1.7851C8.9412 1.91941 8.71225 1.93162 8.61969 1.93162C7.60404 1.92186 6.70772 2.02686 5.87474 2.24908C4.04071 2.74237 2.80341 3.66789 2.09221 5.07936C1.21538 6.81807 0.616214 8.442 0.260612 10.044C0.189979 10.3663 0.131524 10.6984 0.0779402 11.0208C0.0535838 11.1673 0.0267919 11.3138 0 11.4603V12.6374C0 12.6374 0.00730689 12.6593 0.00974252 12.6716C0.0267919 12.7277 0.0438413 12.7863 0.0535839 12.8449C0.175365 13.6923 0.54071 14.3663 1.11308 14.7937C1.64405 15.1917 2.3382 15.3504 3.06646 15.2405C3.3563 15.1966 3.6437 15.1233 3.94572 15.0452C4.08699 15.0085 4.22825 14.9719 4.37439 14.9377L4.66423 14.8694L4.61795 15.2527C4.61065 15.3284 4.6009 15.4066 4.58873 15.4872C4.38657 16.6716 4.35491 17.7094 4.49374 18.6593C4.72756 20.2686 5.48747 21.5214 6.75157 22.3834C8.135 23.326 9.72303 23.641 10.953 23.8071C12.5581 24.0269 14.2728 24.0586 16.1945 23.9048C17.5 23.7998 18.6228 23.5702 19.6312 23.199C21.2436 22.6056 22.3347 21.6972 22.9656 20.4274C23.5184 19.3162 23.6914 18.0684 23.5282 16.3883C23.5014 16.1099 23.4624 15.8364 23.4235 15.5458C23.404 15.4115 23.3869 15.2747 23.3674 15.1355L23.326 14.8132L23.6354 14.9109C23.7352 14.9426 23.8326 14.9744 23.9252 15.0037C24.1152 15.0672 24.293 15.1258 24.4732 15.1673C25.3549 15.3822 26.1489 15.2796 26.7651 14.8718C27.374 14.4713 27.7735 13.7998 27.9245 12.928L27.9269 12.9304ZM4.65936 13.58C4.1357 14.0488 3.48782 14.3053 2.73521 14.337C2.70598 14.337 2.67676 14.337 2.64997 14.337C1.72199 14.337 1.06681 13.6532 0.974252 12.5739C0.879262 11.4872 1.05219 10.359 1.51496 9.02564C1.87787 7.98046 2.30167 6.90598 2.81559 5.73871C3.37335 4.46886 4.44015 3.6337 6.07446 3.18437C6.42032 3.08913 6.76861 3.02808 7.13883 2.96459C7.30932 2.93529 7.48469 2.90598 7.66493 2.86935L8.08142 2.78877L7.89144 3.16972C7.79402 3.36264 7.69903 3.54579 7.60891 3.72161C7.42136 4.08303 7.24356 4.42491 7.09012 4.77167C6.33264 6.47619 5.93076 8.2906 5.60926 9.99756C5.53862 10.3736 5.47286 10.7497 5.4071 11.1258C5.30724 11.6972 5.20251 12.2882 5.08316 12.8694C5.03201 13.1233 4.87126 13.3944 4.66423 13.58H4.65936ZM14.0146 18.9915C14.0146 18.9915 14.0024 18.9915 13.9976 18.9915C13.5738 18.9915 13.1597 18.8107 12.865 18.4933C12.5873 18.1978 12.4461 17.8095 12.4729 17.431L12.4875 17.2381H15.5077L15.5247 17.4286C15.5564 17.8046 15.4248 18.1758 15.1521 18.4737C14.8598 18.7961 14.4457 18.9866 14.017 18.9915H14.0146ZM22.5077 18.928C22.1569 20.525 21.151 21.619 19.429 22.2735C18.104 22.7766 16.7157 22.9255 15.6562 22.9988C15.4443 23.0134 15.23 23.0208 15.0059 23.0305L14.4603 23.0525V22.2613C14.4603 21.5507 14.4603 20.8816 14.4676 20.2027C14.4701 20.0147 14.6527 19.8462 14.7818 19.7949C15.7902 19.409 16.3455 18.7009 16.4819 17.6313C16.5282 17.265 16.4332 16.9231 16.214 16.6716C15.9923 16.4176 15.666 16.2784 15.2909 16.2759C15.0157 16.2759 14.7404 16.2759 14.4676 16.2808C13.944 16.2882 13.4033 16.2955 12.8674 16.2637C12.4217 16.2369 12.0052 16.398 11.7592 16.696C11.501 17.0037 11.4328 17.4383 11.5571 17.9487C11.7738 18.84 12.3097 19.4481 13.1451 19.7582C13.4252 19.8608 13.5421 20.0342 13.5372 20.3321C13.5275 20.9304 13.5299 21.5385 13.5299 22.1245V22.9988H13.3229C13.2157 22.9988 13.1134 22.9988 13.0111 23.0012C12.7846 23.0061 12.5727 23.0085 12.3535 22.9939C11.2039 22.9182 9.70355 22.7521 8.28845 22.1563C6.44468 21.3773 5.45581 19.9512 5.34864 17.917C5.28288 16.6911 5.52401 15.4872 5.73591 14.4225C5.9064 13.5653 6.06715 12.6886 6.2206 11.8413C6.38866 10.9231 6.56159 9.97558 6.74913 9.04518C7.02436 7.68254 7.4579 5.9072 8.37126 4.27106C9.37961 2.46886 10.7216 1.42857 12.4753 1.08913C14.604 0.676435 16.3577 1.0232 17.8337 2.14408C18.8445 2.91087 19.5825 3.96337 20.2279 5.558C20.866 7.13065 21.2119 8.8083 21.5139 10.3932C21.85 12.1661 22.1788 13.9023 22.493 15.6654C22.7122 16.8913 22.7147 17.9585 22.5028 18.9231L22.5077 18.928ZM25.3305 14.3394C25.2916 14.3394 25.2502 14.3394 25.2112 14.337C24.5901 14.3004 24.0104 14.0904 23.4819 13.7118C23.1434 13.4676 22.9534 13.1673 22.8827 12.7643L22.7512 12.0073C22.4321 10.1465 22.1009 8.22222 21.5188 6.39316C21.1388 5.19414 20.7199 4.2442 20.2011 3.40171C20.1841 3.37485 20.1694 3.34554 20.1451 3.29915L19.9137 2.85958L20.301 2.9011C21.8549 3.06716 23.5964 3.44567 24.7411 5.0061C25.0602 5.44322 25.2818 5.94872 25.4962 6.43712L25.5522 6.56654C26.0515 7.70452 26.6604 9.221 26.9356 10.8547C27.0477 11.5287 27.1354 12.3248 26.9088 13.1233C26.6896 13.8926 26.1051 14.3394 25.3281 14.3394H25.3305Z" fill="#D67D31"/>
<path d="M10.2053 9.18192C10.3417 9.10866 10.4854 9.07204 10.6267 9.07204C10.7582 9.07204 10.8873 9.10378 11.0066 9.16483C11.2746 9.30403 11.4524 9.57509 11.4938 9.9072C11.5376 10.2637 11.7373 10.4542 12.0247 10.42C12.4412 10.3687 12.4437 9.96581 12.4266 9.79487C12.3243 8.8376 11.5668 8.14163 10.6243 8.13919H10.6194C9.64269 8.13919 8.84624 8.9011 8.8024 9.8779C8.79022 10.1587 8.92418 10.359 9.16044 10.4103C9.30414 10.442 9.43323 10.4176 9.53553 10.3419C9.64513 10.2613 9.71576 10.1245 9.73281 9.9536C9.76935 9.58486 9.92279 9.33089 10.2078 9.17704L10.2053 9.18192Z" fill="#D67D31"/>
<path d="M16.5013 9.9365C16.5695 9.4188 16.9105 9.07936 17.3709 9.07448C17.3757 9.07448 17.3782 9.07448 17.383 9.07448C17.8507 9.07448 18.1965 9.4188 18.2623 9.9536C18.3013 10.2686 18.5034 10.4518 18.7787 10.4249C19.049 10.398 19.2098 10.188 19.1952 9.88278C19.1513 8.90598 18.3549 8.14407 17.3782 8.14407H17.3733C16.421 8.14407 15.6611 8.8547 15.5685 9.82661C15.5368 10.1612 15.6927 10.3907 15.9752 10.4249C16.2529 10.4591 16.4599 10.2735 16.5038 9.93895L16.5013 9.9365Z" fill="#D67D31"/>
</svg>
