<svg width="28" height="28" viewBox="0 0 28 28" fill="none" xmlns="http://www.w3.org/2000/svg">
<path d="M27.7136 0.991598C27.7853 0.920373 27.8569 0.849148 27.9114 0.769376C28.0433 0.578493 28.0203 0.319234 27.8569 0.151143C27.6792 -0.0283446 27.4212 -0.0511366 27.2148 0.0941625C27.146 0.142596 27.0829 0.205274 27.0198 0.270801L26.3691 0.914675C25.466 1.80926 24.5659 2.701 23.6685 3.59844C23.5223 3.74374 23.3962 3.80641 23.1525 3.70385C22.2868 3.34772 21.4926 3.49017 20.796 4.12835C20.7272 4.19103 20.6699 4.2708 20.6183 4.34772C20.5925 4.38476 20.5667 4.41895 20.5409 4.45314L20.5036 4.50157L20.452 4.46738C19.2021 3.60698 17.8948 3.75798 16.7796 4.89473C14.7872 6.92322 12.7346 8.95741 10.7479 10.9261C9.87926 11.7865 9.01062 12.6469 8.14198 13.5101C8.09037 13.5614 8.04451 13.6241 7.99864 13.6896C7.9757 13.7238 7.9499 13.7551 7.92697 13.7893L7.88397 13.8435L7.73489 13.7124C7.68329 13.6668 7.64602 13.6355 7.60875 13.6013C6.86052 12.9175 5.69373 12.9261 5.00857 13.6241C4.31767 14.3221 4.32627 15.4446 5.02577 16.1768C5.40705 16.5756 5.81127 16.9688 6.19256 17.3363C6.31869 17.456 6.45057 17.5642 6.57957 17.6697C6.63404 17.7152 6.68851 17.758 6.73725 17.8007L6.79172 17.8463L3.63251 21.003L3.58664 20.9546C3.54364 20.909 3.50063 20.8634 3.45763 20.815C3.36303 20.7095 3.26269 20.6041 3.15948 20.5016C2.78393 20.1341 2.29371 19.9517 1.80922 19.9517C1.32473 19.9517 0.886115 20.1198 0.539233 20.4588C0.195217 20.8007 0.00314167 21.248 0.00027487 21.7266C-0.00259193 22.2195 0.195217 22.6925 0.556433 23.0571C2.0443 24.5529 3.53217 26.0315 4.97703 27.4503C5.71953 28.1796 6.86625 28.1882 7.58582 27.4645C8.30825 26.738 8.29392 25.6241 7.55428 24.8719C7.44248 24.758 7.31061 24.6554 7.1816 24.5557C7.1214 24.5101 7.06119 24.4617 7.00386 24.4133L6.94939 24.3677L10.1573 21.1882L10.2032 21.2366C10.3494 21.3876 10.4899 21.5415 10.6332 21.6953C10.9457 22.0315 11.2668 22.3791 11.6079 22.6896C12.2616 23.2879 13.3108 23.2822 13.9988 22.6754C14.6869 22.0657 14.813 21.04 14.2941 20.2879C14.2569 20.2338 14.2196 20.1796 14.1737 20.117L14.0791 19.9831L14.125 19.946C14.1594 19.9175 14.1938 19.889 14.2253 19.8634C14.2884 19.8093 14.3486 19.7608 14.4031 19.7067C17.3301 16.8007 20.2542 13.8919 23.1812 10.9831L23.2414 10.9232C23.3045 10.8605 23.3675 10.8007 23.4277 10.7323C23.9667 10.1312 24.1702 9.47023 24.0355 8.76368C23.9782 8.47308 23.8664 8.18533 23.7574 7.90613C23.7115 7.78647 23.6657 7.66966 23.6227 7.55L23.4191 7.49872L23.5223 7.4161C23.5596 7.38761 23.5969 7.35912 23.637 7.33063C23.7201 7.2708 23.7947 7.21382 23.8578 7.14545C24.4913 6.45599 24.6318 5.66681 24.2763 4.80072C24.1903 4.58989 24.2161 4.46168 24.3738 4.30499C25.3026 3.39331 26.2401 2.45884 27.1488 1.55855L27.7251 0.985901L27.7136 0.991598ZM7.04399 25.9033C7.06693 25.946 7.087 25.9831 7.10706 26.0144L7.11853 26.0315V26.0514C7.0956 26.4987 6.95799 26.7494 6.65984 26.8947C6.5337 26.9574 6.40756 26.9859 6.28143 26.9859C6.12089 26.9859 5.96321 26.9346 5.81414 26.8378C5.7396 26.7893 5.6794 26.7266 5.6192 26.6668L4.92256 25.9745C3.74718 24.8064 2.52879 23.5984 1.33907 22.4047C1.19286 22.2594 1.07819 22.0628 1.03519 21.8833C0.949185 21.5472 1.11546 21.2024 1.44801 21.0258C1.77482 20.852 2.12744 20.9004 2.39405 21.1511C2.65493 21.3962 2.91007 21.6526 3.15948 21.9004C3.25409 21.9944 3.34869 22.0885 3.4433 22.1825L4.1944 22.9289C5.04297 23.7694 5.92021 24.6383 6.77451 25.5016C6.89779 25.6269 6.98666 25.7865 7.04973 25.9033H7.04399ZM6.27569 23.5301L4.44954 21.7124L7.47975 18.7067L9.31163 20.5016L6.27569 23.5272V23.5301ZM13.6692 21.2879C13.5946 21.5728 13.4857 21.8605 13.1761 22.0201C13.0442 22.0885 12.9095 22.1227 12.7747 22.1227C12.6142 22.1227 12.4536 22.0714 12.3017 21.9688C12.2272 21.9175 12.1612 21.8548 12.101 21.7922L11.069 20.7665C9.35463 19.0657 7.58582 17.305 5.85141 15.5671C5.68513 15.4019 5.55613 15.1597 5.51026 14.9403C5.44432 14.6184 5.60486 14.3306 5.94601 14.1568C6.23842 14.0058 6.53944 14.0343 6.81752 14.2395C6.88059 14.2879 6.93792 14.342 6.99239 14.3962L8.17638 15.5728C9.83912 17.2252 11.5592 18.9318 13.2449 20.6184C13.3653 20.7409 13.4542 20.8919 13.543 21.0372C13.5832 21.1027 13.6204 21.1711 13.6634 21.2338L13.6778 21.2566L13.672 21.285L13.6692 21.2879ZM22.5935 10.1426C21.4267 11.305 20.2599 12.4674 19.0903 13.6269L17.8002 14.909C16.4184 16.285 15.0338 17.6583 13.652 19.0343C13.6004 19.0856 13.5459 19.1369 13.4972 19.1825L13.3939 19.2822L8.6236 14.5415L9.69005 13.4987L9.80472 13.6098C9.87352 13.6782 9.96239 13.7665 10.0541 13.8491C10.3035 14.0742 10.6046 14.0799 10.8052 13.8691C10.9973 13.6668 10.9801 13.3734 10.7622 13.1426C10.6848 13.06 10.5988 12.9888 10.5186 12.9175C10.4813 12.8862 10.4469 12.8548 10.4153 12.8264L10.3666 12.7808L11.8803 11.2623L12.2501 11.6383C12.5224 11.9147 12.7977 12.1939 13.0729 12.4702C13.2621 12.6611 13.4714 12.6953 13.695 12.5728C13.9042 12.4588 13.9874 12.2737 13.9329 12.0514C13.9071 11.9489 13.8326 11.8292 13.7236 11.7152C13.4628 11.4417 13.1933 11.1768 12.9324 10.9175L12.597 10.5842L14.1078 9.08562L14.1536 9.13405C14.211 9.19673 14.2741 9.26225 14.3343 9.33063C14.4833 9.49302 14.6381 9.66396 14.8015 9.82636C15.0739 10.1027 15.3634 10.134 15.5899 9.91753C15.6903 9.82066 15.7447 9.7124 15.7447 9.59559C15.7447 9.44174 15.6616 9.2765 15.501 9.11126C15.3864 8.9973 15.2717 8.88049 15.157 8.76653C15.0653 8.67536 14.9764 8.58704 14.8847 8.49587L14.8703 8.51297L14.8445 8.45314C14.8302 8.43319 14.8187 8.40186 14.8302 8.37337L14.8474 8.33348H14.8703L16.2779 6.92892L17.2785 7.92892C17.3444 7.9973 17.4161 8.06852 17.4877 8.1312C17.7113 8.32493 18.0038 8.32208 18.1987 8.1312C18.4022 7.92892 18.3994 7.64972 18.193 7.43319C17.9579 7.18533 17.7113 6.94317 17.4705 6.7067C17.3587 6.59559 17.2469 6.48448 17.1351 6.37337C17.1065 6.34203 17.0778 6.31069 17.052 6.2822L16.9832 6.20812L17.0262 6.16539C17.1265 6.06282 17.2211 5.95741 17.3186 5.85485C17.5279 5.62693 17.7429 5.39331 17.9808 5.19388C18.5054 4.74943 19.3139 4.78647 19.8213 5.2765C20.8677 6.2879 21.8023 7.21667 22.6795 8.11695C23.2443 8.69815 23.2099 9.53291 22.5935 10.1483V10.1426ZM22.8802 6.68391L22.8343 6.72379L21.226 5.1198L21.2662 5.07422C21.5959 4.7067 21.9628 4.50727 22.3212 4.49872C22.6164 4.49302 22.8859 4.61268 23.121 4.84915C23.3475 5.07992 23.4621 5.35342 23.4535 5.64117C23.4421 6.00299 23.2443 6.36197 22.8802 6.68391Z" fill="#D67D31"/>
</svg>
