<?xml version="1.0" encoding="UTF-8"?>
<!DOCTYPE svg PUBLIC "-//W3C//DTD SVG 1.1//EN" "http://www.w3.org/Graphics/SVG/1.1/DTD/svg11.dtd">
<svg xmlns="http://www.w3.org/2000/svg" version="1.1" width="2722px" height="562px" style="shape-rendering:geometricPrecision; text-rendering:geometricPrecision; image-rendering:optimizeQuality; fill-rule:evenodd; clip-rule:evenodd" xmlns:xlink="http://www.w3.org/1999/xlink">
<g><path style="opacity:0.996" fill="#f9f9f9" d="M -0.5,3.5 C 7.96455,6.28276 16.6312,8.11609 25.5,9C 33.9978,12.2597 42.1644,15.4263 50,18.5C 50.3333,18.1667 50.6667,17.8333 51,17.5C 52.6667,18.5 54.3333,19.5 56,20.5C 56.3333,20.1667 56.6667,19.8333 57,19.5C 61.214,21.686 65.5474,23.686 70,25.5C 71.1475,24.5419 72.1475,24.8753 73,26.5C 74.1475,25.5419 75.1475,25.8753 76,27.5C 76.3333,27.1667 76.6667,26.8333 77,26.5C 78.6667,27.5 80.3333,28.5 82,29.5C 83.1475,28.5419 84.1475,28.8753 85,30.5C 86.1475,29.5419 87.1475,29.8753 88,31.5C 89.1475,30.5419 90.1475,30.8753 91,32.5C 91.3333,32.1667 91.6667,31.8333 92,31.5C 93.6667,32.5 95.3333,33.5 97,34.5C 98.1475,33.5419 99.1475,33.8753 100,35.5C 101.998,34.7286 103.665,35.3952 105,37.5C 106.395,36.1854 107.395,36.5188 108,38.5C 109.395,37.1854 110.395,37.5188 111,39.5C 112.395,38.1854 113.395,38.5188 114,40.5C 115.395,39.1854 116.395,39.5188 117,41.5C 118.147,40.5419 119.147,40.8753 120,42.5C 120.333,42.1667 120.667,41.8333 121,41.5C 122.667,42.5 124.333,43.5 126,44.5C 126.333,44.1667 126.667,43.8333 127,43.5C 129.698,44.2798 132.031,45.6131 134,47.5C 135.333,47.5 136.667,47.5 138,47.5C 139.676,48.0611 141.009,49.0611 142,50.5C 143.395,49.1854 144.395,49.5188 145,51.5C 146.333,51.5 147.667,51.5 149,51.5C 149.333,52.1667 149.667,52.8333 150,53.5C 151.503,53.1654 152.836,53.1654 154,53.5C 155.676,54.0611 157.009,55.0611 158,56.5C 159.333,56.5 160.667,56.5 162,56.5C 162.324,58.5689 163.158,58.9023 164.5,57.5C 165.192,58.0253 165.692,58.6919 166,59.5C 166.333,59.1667 166.667,58.8333 167,58.5C 173.333,61.5 179.667,64.5 186,67.5C 187.998,66.7286 189.665,67.3952 191,69.5C 192.016,68.3659 192.683,68.6992 193,70.5C 193.414,70.0426 193.914,69.7093 194.5,69.5C 195.77,70.5622 196.937,71.5622 198,72.5C 198.333,72.1667 198.667,71.8333 199,71.5C 201.502,73.8211 204.502,75.4877 208,76.5C 209.016,75.3659 209.683,75.6992 210,77.5C 210.333,77.1667 210.667,76.8333 211,76.5C 213.502,78.8211 216.502,80.4877 220,81.5C 221.016,80.3659 221.683,80.6992 222,82.5C 222.333,82.1667 222.667,81.8333 223,81.5C 225.502,83.8211 228.502,85.4877 232,86.5C 233.016,85.3659 233.683,85.6992 234,87.5C 235.998,86.7286 237.665,87.3952 239,89.5C 240.016,88.3659 240.683,88.6992 241,90.5C 242.998,89.7286 244.665,90.3952 246,92.5C 247.016,91.3659 247.683,91.6992 248,93.5C 249.503,93.1654 250.836,93.1654 252,93.5C 342.162,133.344 441.996,176.177 551.5,222C 648.315,262.274 746.648,298.607 846.5,331C 908.552,350.93 971.552,367.263 1035.5,380C 1130.86,400.03 1226.52,401.697 1322.5,385C 1402.83,370.25 1481.5,349.25 1558.5,322C 1640.4,292.59 1722.06,262.59 1803.5,232C 1867.29,208.293 1932.29,188.626 1998.5,173C 2071.99,157.763 2145.99,154.763 2220.5,164C 2322.13,177.321 2420.8,202.321 2516.5,239C 2542.95,249.056 2569.28,259.39 2595.5,270C 2637.32,287.994 2679.32,305.494 2721.5,322.5C 2721.5,402.167 2721.5,481.833 2721.5,561.5C 1814.17,561.5 906.833,561.5 -0.5,561.5C -0.5,375.5 -0.5,189.5 -0.5,3.5 Z"/></g>
</svg>
