<svg width="1440" height="553" viewBox="0 0 1440 553" fill="none" xmlns="http://www.w3.org/2000/svg">
<path d="M253.284 464.209C142.91 474.191 25.4517 506.592 -34.3271 529.247L-44.2085 533.2C-56.7221 362.027 -147.565 -12.501 -111.907 1.13928C-67.3345 18.1896 72.9132 80.5612 283.217 103.008C449.778 120.786 602.995 54.8865 772.503 52.3217C943.912 49.7282 1174.15 117.117 1289.49 115.371C1389.99 113.851 1486.47 64.5375 1549.54 40.5649L1617.66 504.252C1593.6 521.295 1543.26 560.79 1434.67 550.833C1326.09 540.876 1287.11 465.627 1159.35 450.5C1031.59 435.374 811.468 488.921 691.275 494.837C565.766 501.014 371.551 453.514 253.284 464.209Z" fill="#EF995E"/>
</svg>
