<svg width="12" height="12" viewBox="0 0 12 12" fill="none" xmlns="http://www.w3.org/2000/svg">
<path d="M5.99923 12C4.94971 12 3.91871 11.7222 3.00656 11.1943L0.668296 12L1.1483 9.52437C0.396656 8.49183 0 7.27717 0 5.99923C0 2.6917 2.6917 0 5.99923 0C9.30675 0 11.9985 2.6917 11.9985 5.99923C11.9985 9.30675 9.30675 11.9985 5.99923 11.9985V12ZM3.1146 10.2127L3.29518 10.3254C4.1101 10.8363 5.0454 11.1064 5.99923 11.1064C8.81595 11.1064 11.1064 8.81595 11.1064 5.99923C11.1064 3.18251 8.81595 0.89209 5.99923 0.89209C3.18251 0.89209 0.89209 3.18405 0.89209 5.99923C0.89209 7.14444 1.26714 8.231 1.97711 9.13852L2.10212 9.29904L1.83974 10.6511L3.1146 10.2127Z" fill="white"/>
<path d="M2.97103 3.69487C2.97103 3.69487 3.32292 3.07905 3.61 3.0451C3.89707 3.0096 4.26595 3.0096 4.36627 3.19789C4.46659 3.38619 4.91109 4.47584 4.91109 4.47584C4.91109 4.47584 4.98672 4.66413 4.86942 4.84471C4.75212 5.02683 4.4882 5.29076 4.4882 5.29076C4.4882 5.29076 4.34157 5.47905 4.4882 5.67815C4.63482 5.87725 4.8617 6.24304 5.33244 6.71378C5.80164 7.18297 6.70299 7.51944 6.70299 7.51944C6.70299 7.51944 6.83263 7.53641 6.91444 7.45461C6.99624 7.37281 7.44228 6.81564 7.44228 6.81564C7.44228 6.81564 7.58582 6.63043 7.8235 6.74002C8.06119 6.84805 9.0891 7.36047 9.0891 7.36047C9.0891 7.36047 9.20948 7.40368 9.20948 7.5858C9.20948 7.76793 9.1354 8.21243 8.98569 8.36214C8.83598 8.51185 8.39611 8.97641 7.73553 8.97641C7.07495 8.97641 5.50222 8.43931 4.66415 7.60124C3.82608 6.76317 3.08215 5.91275 2.9062 5.1395C2.73026 4.36625 2.75341 4.0159 2.97103 3.69796V3.69487Z" fill="white"/>
</svg>
